<?xml version="1.0" encoding="UTF-8" standalone="no"?>
<!-- Created with Inkscape (http://www.inkscape.org/) -->

<svg
   xmlns:dc="http://purl.org/dc/elements/1.1/"
   xmlns:cc="http://creativecommons.org/ns#"
   xmlns:rdf="http://www.w3.org/1999/02/22-rdf-syntax-ns#"
   xmlns:svg="http://www.w3.org/2000/svg"
   xmlns="http://www.w3.org/2000/svg"
   xmlns:sodipodi="http://sodipodi.sourceforge.net/DTD/sodipodi-0.dtd"
   xmlns:inkscape="http://www.inkscape.org/namespaces/inkscape"
   width="96.928612"
   height="22.38426"
   viewBox="0 0 25.645694 5.9225022"
   version="1.1"
   id="svg9283"
   inkscape:version="0.92.0 r15299"
   sodipodi:docname="dwave.svg">
  <defs
     id="defs9277">
    <clipPath
       id="clipPath7897"
       clipPathUnits="userSpaceOnUse">
      <path
         inkscape:connector-curvature="0"
         id="path7895"
         d="m 478.281,24.649 h 71.946 v 17.118 h -71.946 z" />
    </clipPath>
  </defs>
  <sodipodi:namedview
     id="base"
     pagecolor="#ffffff"
     bordercolor="#666666"
     borderopacity="1.0"
     inkscape:pageopacity="0.0"
     inkscape:pageshadow="2"
     inkscape:zoom="9.3508023"
     inkscape:cx="47.963801"
     inkscape:cy="10.691932"
     inkscape:document-units="mm"
     inkscape:current-layer="layer1"
     showgrid="false"
     fit-margin-top="0"
     fit-margin-left="0"
     fit-margin-right="0"
     fit-margin-bottom="0"
     units="px"
     inkscape:window-width="1280"
     inkscape:window-height="744"
     inkscape:window-x="-4"
     inkscape:window-y="-4"
     inkscape:window-maximized="1" />
  <metadata
     id="metadata9280">
    <rdf:RDF>
      <cc:Work
         rdf:about="">
        <dc:format>image/svg+xml</dc:format>
        <dc:type
           rdf:resource="http://purl.org/dc/dcmitype/StillImage" />
        <dc:title></dc:title>
      </cc:Work>
    </rdf:RDF>
  </metadata>
  <g
     inkscape:label="Layer 1"
     inkscape:groupmode="layer"
     id="layer1"
     transform="translate(-82.559578,-206.97188)">
    <g
       id="g9663"
       transform="translate(0.1322916,-0.13228882)">
      <path
         inkscape:connector-curvature="0"
         id="path7901"
         style="fill:#1d2329;fill-opacity:1;fill-rule:nonzero;stroke:none;stroke-width:0.35277778"
         d="m 99.395792,210.25267 c -0.185208,0.16228 -0.414514,0.24624 -0.677686,0.24624 h -1.926519 c -0.26282,0 -0.487187,-0.084 -0.671689,-0.24624 -0.184856,-0.16263 -0.280106,-0.375 -0.280106,-0.63288 v -0.15664 c 0,-0.24659 0.09525,-0.45367 0.291042,-0.62159 0.196144,-0.17357 0.414514,-0.25753 0.660753,-0.25753 h 1.226608 v 0.58208 h -1.226608 c -0.08361,0 -0.156634,0.0282 -0.229306,0.0843 -0.07303,0.0614 -0.106539,0.12876 -0.106539,0.21272 v 0.15664 c 0,0.19614 0.111831,0.29139 0.335845,0.29139 h 1.926519 c 0.229305,0 0.341489,-0.0952 0.341489,-0.29139 v -1.50037 c 0,-0.0787 -0.03351,-0.14569 -0.106186,-0.20708 -0.07302,-0.0617 -0.151342,-0.09 -0.235303,-0.09 h -2.822222 v -0.58243 h 2.822222 c 0.251883,0 0.470253,0.0843 0.660753,0.25788 0.196144,0.17357 0.291041,0.38065 0.291041,0.62159 v 1.50037 c 0,0.25788 -0.0896,0.47025 -0.274108,0.63288" />
      <path
         inkscape:connector-curvature="0"
         id="path7905"
         style="fill:#1d2329;fill-opacity:1;fill-rule:nonzero;stroke:none;stroke-width:0.35277778"
         d="m 103.26728,209.61986 c -0.15099,0.58808 -0.46496,0.87912 -0.95179,0.87912 h -0.82903 c -0.48684,0 -0.80045,-0.29104 -0.9518,-0.87912 l -0.610302,-2.37984 h 0.655112 l 0.58808,2.26801 c 0.0674,0.26846 0.20743,0.40322 0.40887,0.40322 h 0.64946 c 0.20708,0 0.35278,-0.13476 0.42016,-0.40322 l 0.58208,-2.26801 h 0.65511 z" />
      <path
         inkscape:connector-curvature="0"
         id="path7909"
         style="fill:#1d2329;fill-opacity:1;fill-rule:nonzero;stroke:none;stroke-width:0.35277778"
         d="m 107.64829,208.89773 c -0.19614,0.17357 -0.41451,0.25717 -0.66075,0.25717 h -1.2319 v -0.58772 h 1.2319 c 0.0783,0 0.15134,-0.0279 0.22401,-0.084 0.0727,-0.0617 0.11218,-0.12877 0.11218,-0.20708 v -0.15664 c 0,-0.19614 -0.11218,-0.29704 -0.33619,-0.29704 h -1.93181 c -0.22437,0 -0.3362,0.1009 -0.3362,0.29704 v 1.49472 c 0,0.084 0.0339,0.15134 0.10654,0.20743 0.0727,0.0614 0.1457,0.0896 0.22966,0.0896 h 2.82786 v 0.58208 h -2.82786 c -0.2466,0 -0.46461,-0.084 -0.66076,-0.25188 -0.19579,-0.17357 -0.29139,-0.38065 -0.29139,-0.62724 v -1.49472 c 0,-0.26352 0.0956,-0.4706 0.28046,-0.63288 0.1845,-0.16228 0.40851,-0.24659 0.67169,-0.24659 h 1.93181 c 0.26317,0 0.48718,0.0843 0.67204,0.24094 0.1845,0.16228 0.2801,0.37501 0.2801,0.63853 v 0.15664 c 0,0.24059 -0.0956,0.44767 -0.29139,0.62159" />
      <path
         inkscape:connector-curvature="0"
         id="path7913"
         style="fill:#1d2329;fill-opacity:1;fill-rule:nonzero;stroke:none;stroke-width:0.35277778"
         d="m 87.95161,208.86509 c 0,0.21449 -0.173919,0.38841 -0.388408,0.38841 -0.214489,0 -0.388761,-0.17392 -0.388761,-0.38841 0,-0.21449 0.174272,-0.38876 0.388761,-0.38876 0.214489,0 0.388408,0.17427 0.388408,0.38876" />
      <path
         inkscape:connector-curvature="0"
         id="path7917"
         style="fill:#1d2329;fill-opacity:1;fill-rule:nonzero;stroke:none;stroke-width:0.35277778"
         d="m 87.95161,207.62487 c 0,0.21449 -0.173919,0.38841 -0.388408,0.38841 -0.214489,0 -0.388761,-0.17392 -0.388761,-0.38841 0,-0.21484 0.174272,-0.38841 0.388761,-0.38841 0.214489,0 0.388408,0.17357 0.388408,0.38841" />
      <path
         inkscape:connector-curvature="0"
         id="path7921"
         style="fill:#1d2329;fill-opacity:1;fill-rule:nonzero;stroke:none;stroke-width:0.35277778"
         d="m 89.243236,210.10518 c 0,0.21449 -0.173919,0.38876 -0.388761,0.38876 -0.214136,0 -0.388056,-0.17427 -0.388056,-0.38876 0,-0.21449 0.17392,-0.38841 0.388056,-0.38841 0.214842,0 0.388761,0.17392 0.388761,0.38841" />
      <path
         inkscape:connector-curvature="0"
         id="path7925"
         style="fill:#3875e1;fill-opacity:1;fill-rule:nonzero;stroke:none;stroke-width:0.35277778"
         d="m 89.243236,208.86509 c 0,0.21449 -0.173919,0.38841 -0.388761,0.38841 -0.214136,0 -0.388056,-0.17392 -0.388056,-0.38841 0,-0.21449 0.17392,-0.38876 0.388056,-0.38876 0.214842,0 0.388761,0.17427 0.388761,0.38876" />
      <path
         inkscape:connector-curvature="0"
         id="path7929"
         style="fill:#1d2329;fill-opacity:1;fill-rule:nonzero;stroke:none;stroke-width:0.35277778"
         d="m 92.513979,209.61425 -0.01376,0.0564 c -0.155928,0.54505 -0.463198,0.81492 -0.931334,0.81492 h -0.426861 c -0.485422,0 -0.797278,-0.28998 -0.947914,-0.87524 l -0.608188,-2.37031 h 0.652638 l 0.585611,2.25848 c 0.06703,0.26811 0.206375,0.40181 0.407106,0.40181 h 0.248356 c 0.206375,0 0.351366,-0.13229 0.418394,-0.40005 0,0 0.152047,-0.46919 0.61595,-0.47484 0,0 0.455436,-0.0441 0.611717,0.45579 l 0.0063,0.0169" />
      <path
         inkscape:connector-curvature="0"
         id="path7933"
         style="fill:#1d2329;fill-opacity:1;fill-rule:nonzero;stroke:none;stroke-width:0.35277778"
         d="m 93.132117,209.49801 c 0.06244,0.25929 0.218722,0.40217 0.419453,0.40217 h 0.248355 c 0.206375,0 0.351014,-0.13371 0.418395,-0.40182 l 0.579966,-2.25813 h 0.652287 l -0.613481,2.36996 c -0.150636,0.58561 -0.462844,0.8756 -0.947914,0.8756 h -0.426861 c -0.485069,0 -0.799747,-0.2921 -0.950383,-0.87771 z" />
      <path
         inkscape:connector-curvature="0"
         id="path7937"
         style="fill:#1d2329;fill-opacity:1;fill-rule:nonzero;stroke:none;stroke-width:0.35277778"
         d="m 85.891564,208.11883 c 0,-0.0787 -0.03316,-0.14605 -0.105128,-0.20743 -0.07232,-0.0621 -0.144286,-0.0903 -0.227541,-0.0903 h -2.395009 v 2.09444 h 2.395009 c 0.221897,0 0.332669,-0.0952 0.332669,-0.2921 z m 0.338314,2.13924 c -0.183092,0.16299 -0.410633,0.24695 -0.670983,0.24695 h -2.999317 v -3.26778 h 2.999317 c 0.244122,0 0.460022,0.0843 0.65405,0.25823 0.194027,0.17427 0.288219,0.38206 0.288219,0.62336 v 1.5046 c 0,0.25858 -0.08855,0.47166 -0.271286,0.63464" />
      <path
         inkscape:connector-curvature="0"
         id="path7941"
         style="fill:#1d2329;fill-opacity:1;fill-rule:nonzero;stroke:none;stroke-width:0.35277778"
         d="M 82.589917,211.37288 H 83.5403 v 0.14605 h -0.396169 v 0.99201 h -0.164395 v -0.99201 h -0.389819 z" />
      <path
         inkscape:connector-curvature="0"
         id="path7945"
         style="fill:#1d2329;fill-opacity:1;fill-rule:nonzero;stroke:none;stroke-width:0.35277778"
         d="m 83.66783,211.37288 h 0.147814 v 0.48472 c 0.06209,-0.0759 0.139347,-0.1136 0.231422,-0.1136 0.05009,0 0.0949,0.0123 0.134761,0.0374 0.03951,0.025 0.06915,0.0596 0.08855,0.10407 0.0194,0.0441 0.02893,0.10971 0.02893,0.19685 v 0.42862 h -0.147814 v -0.46531 c 0,-0.055 -0.01376,-0.0991 -0.04057,-0.13265 -0.02716,-0.0335 -0.06279,-0.0504 -0.106892,-0.0504 -0.03281,0 -0.0635,0.008 -0.09243,0.0254 -0.02893,0.0169 -0.06103,0.0448 -0.09595,0.084 v 0.53904 H 83.66783 Z" />
      <path
         inkscape:connector-curvature="0"
         id="path7949"
         style="fill:#1d2329;fill-opacity:1;fill-rule:nonzero;stroke:none;stroke-width:0.35277778"
         d="m 84.614015,212.05854 h 0.377119 c -0.0035,-0.0593 -0.02152,-0.10513 -0.05292,-0.13723 -0.0314,-0.0321 -0.07373,-0.0483 -0.127,-0.0483 -0.05327,0 -0.09701,0.0162 -0.130881,0.0483 -0.03387,0.0321 -0.05609,0.078 -0.06632,0.13723 m 0.523169,0.0896 H 84.60978 c 0.0039,0.072 0.02787,0.12911 0.07232,0.1718 0.0441,0.0423 0.1016,0.0639 0.171803,0.0639 0.09772,0 0.18803,-0.0307 0.27058,-0.0917 v 0.14464 c -0.04551,0.0303 -0.09066,0.0519 -0.135466,0.0649 -0.0448,0.013 -0.09772,0.0194 -0.157692,0.0194 -0.0829,0 -0.149578,-0.0169 -0.20073,-0.0512 -0.05115,-0.0346 -0.09207,-0.0804 -0.122767,-0.13864 -0.03069,-0.0579 -0.04586,-0.12489 -0.04586,-0.20109 0,-0.1143 0.0321,-0.20743 0.09666,-0.27904 0.06491,-0.0716 0.148519,-0.10725 0.251883,-0.10725 0.09948,0 0.178506,0.0349 0.237772,0.10478 0.05927,0.0699 0.0889,0.16333 0.0889,0.28081 z" />
      <path
         inkscape:connector-curvature="0"
         id="path7953"
         style="fill:#1d2329;fill-opacity:1;fill-rule:nonzero;stroke:none;stroke-width:0.35277778"
         d="m 86.342026,211.51043 c -0.127706,0 -0.233186,0.0413 -0.316794,0.12382 -0.08326,0.0825 -0.124884,0.18662 -0.124884,0.31221 0,0.12206 0.04198,0.22366 0.125942,0.30516 0.08361,0.0811 0.189089,0.1217 0.315736,0.1217 0.124883,0 0.230364,-0.0416 0.315736,-0.12488 0.08572,-0.0829 0.128411,-0.18521 0.128411,-0.30692 0,-0.12453 -0.04198,-0.22754 -0.125941,-0.30903 -0.08396,-0.0815 -0.190148,-0.12206 -0.318206,-0.12206 m 0.585964,1.07103 -0.163336,0.16052 c -0.05115,-0.002 -0.104422,-0.0116 -0.159809,-0.0272 -0.05539,-0.0155 -0.11183,-0.037 -0.16898,-0.0642 -0.05715,-0.0272 -0.13335,-0.0741 -0.2286,-0.1397 -0.137936,-0.025 -0.251883,-0.0907 -0.341489,-0.19721 -0.08961,-0.10653 -0.134056,-0.2293 -0.134056,-0.3683 0,-0.17003 0.0575,-0.31079 0.172862,-0.42227 0.115358,-0.11112 0.261408,-0.16686 0.43815,-0.16686 0.175683,0 0.32138,0.0554 0.437797,0.1658 0.116416,0.11042 0.174272,0.24942 0.174272,0.41663 0,0.14076 -0.04374,0.26423 -0.131939,0.37077 -0.08784,0.10654 -0.201789,0.17357 -0.341136,0.20144 l 0.04304,0.0162 c 0.133703,0.0515 0.230364,0.0772 0.289278,0.0772 0.03245,0 0.07055,-0.007 0.113947,-0.0229" />
      <path
         inkscape:connector-curvature="0"
         id="path7957"
         style="fill:#1d2329;fill-opacity:1;fill-rule:nonzero;stroke:none;stroke-width:0.35277778"
         d="m 87.620669,212.51077 v -0.096 c -0.03175,0.0342 -0.06773,0.061 -0.108656,0.0801 -0.04057,0.0187 -0.08114,0.0282 -0.121708,0.0282 -0.04762,0 -0.09137,-0.0116 -0.131586,-0.0353 -0.03986,-0.0236 -0.0702,-0.0557 -0.09102,-0.0963 -0.02046,-0.0402 -0.03069,-0.1076 -0.03069,-0.20143 v -0.42969 h 0.148166 v 0.42792 c 0,0.079 0.01129,0.13406 0.03422,0.1651 0.02258,0.0314 0.06244,0.0469 0.119591,0.0469 0.07126,0 0.131939,-0.0346 0.181681,-0.10372 v -0.53622 h 0.147814 v 0.75036 z" />
      <path
         inkscape:connector-curvature="0"
         id="path7961"
         style="fill:#1d2329;fill-opacity:1;fill-rule:nonzero;stroke:none;stroke-width:0.35277778"
         d="m 88.313313,212.36119 v -0.22331 l -0.09913,0.0385 c -0.05045,0.0201 -0.08608,0.0402 -0.107244,0.0607 -0.02081,0.0205 -0.03104,0.0459 -0.03104,0.0766 0,0.031 0.0099,0.0564 0.02963,0.0762 0.01976,0.0194 0.04516,0.0293 0.07691,0.0293 0.04692,0 0.09066,-0.0194 0.130881,-0.0579 m 0.14605,-0.30339 v 0.31891 c 0,0.0254 0.0085,0.0381 0.02611,0.0381 0.01799,0 0.04586,-0.013 0.08431,-0.0395 v 0.091 c -0.03351,0.0212 -0.06068,0.0356 -0.08079,0.0434 -0.02046,0.008 -0.04163,0.0116 -0.06385,0.0116 -0.06315,0 -0.100542,-0.0247 -0.111831,-0.0737 -0.06315,0.049 -0.130528,0.0737 -0.202142,0.0737 -0.05256,0 -0.09596,-0.0173 -0.13088,-0.0519 -0.03492,-0.0346 -0.05256,-0.078 -0.05256,-0.13017 0,-0.0473 0.01693,-0.0896 0.0508,-0.127 0.03422,-0.037 0.0822,-0.0667 0.144992,-0.0885 l 0.189794,-0.0653 v -0.0402 c 0,-0.0914 -0.04516,-0.13688 -0.135114,-0.13688 -0.08079,0 -0.159455,0.0416 -0.236008,0.12489 v -0.16122 c 0.0575,-0.0674 0.140405,-0.10125 0.248355,-0.10125 0.08079,0 0.145698,0.0212 0.194734,0.0635 0.01623,0.0138 0.03069,0.0317 0.04374,0.0543 0.01305,0.0226 0.02152,0.0452 0.0247,0.0677 0.0035,0.0226 0.0056,0.0653 0.0056,0.12841" />
      <path
         inkscape:connector-curvature="0"
         id="path7965"
         style="fill:#1d2329;fill-opacity:1;fill-rule:nonzero;stroke:none;stroke-width:0.35277778"
         d="m 88.845126,211.76052 v 0.0917 c 0.06632,-0.0723 0.141464,-0.1083 0.225778,-0.1083 0.04657,0 0.09031,0.012 0.130528,0.0363 0.04022,0.0243 0.07055,0.0575 0.09172,0.0998 0.02081,0.042 0.0314,0.10901 0.0314,0.20073 v 0.43004 h -0.148167 v -0.42933 c 0,-0.0773 -0.01164,-0.13229 -0.03493,-0.1651 -0.02364,-0.0332 -0.06279,-0.0497 -0.117475,-0.0497 -0.0702,0 -0.129822,0.0349 -0.178858,0.10442 v 0.53975 h -0.152047 v -0.75036 z" />
      <path
         inkscape:connector-curvature="0"
         id="path7969"
         style="fill:#1d2329;fill-opacity:1;fill-rule:nonzero;stroke:none;stroke-width:0.35277778"
         d="m 89.422341,211.87916 0.2794,-0.27481 v 0.15628 h 0.237419 v 0.13335 h -0.237419 v 0.36724 c 0,0.0857 0.03528,0.12876 0.106539,0.12876 0.05327,0 0.109361,-0.0173 0.168628,-0.0522 v 0.13758 c -0.05715,0.0321 -0.119239,0.048 -0.18662,0.048 -0.06773,0 -0.124178,-0.0197 -0.16898,-0.0596 -0.01411,-0.012 -0.02575,-0.0254 -0.03528,-0.0402 -0.0092,-0.0152 -0.01693,-0.0346 -0.02293,-0.0589 -0.0063,-0.024 -0.0095,-0.0702 -0.0095,-0.13793 v -0.33267 h -0.131233 z" />
      <path
         inkscape:connector-curvature="0"
         id="path7973"
         style="fill:#1d2329;fill-opacity:1;fill-rule:nonzero;stroke:none;stroke-width:0.35277778"
         d="m 90.56594,212.51077 v -0.096 c -0.03175,0.0342 -0.06773,0.061 -0.108656,0.0801 -0.04057,0.0187 -0.08114,0.0282 -0.121708,0.0282 -0.04762,0 -0.09137,-0.0116 -0.131586,-0.0353 -0.04022,-0.0236 -0.07056,-0.0557 -0.09102,-0.0963 -0.02046,-0.0402 -0.03069,-0.1076 -0.03069,-0.20143 v -0.42969 h 0.148166 v 0.42792 c 0,0.079 0.01129,0.13406 0.03422,0.1651 0.02258,0.0314 0.06244,0.0469 0.119591,0.0469 0.07126,0 0.131939,-0.0346 0.181681,-0.10372 v -0.53622 h 0.147814 v 0.75036 z" />
      <path
         inkscape:connector-curvature="0"
         id="path7977"
         style="fill:#1d2329;fill-opacity:1;fill-rule:nonzero;stroke:none;stroke-width:0.35277778"
         d="m 91.532305,211.96629 v 0.54434 h -0.149931 v -0.41946 c 0,-0.0836 -0.01129,-0.14181 -0.03351,-0.17497 -0.02223,-0.0328 -0.06103,-0.0494 -0.116417,-0.0494 -0.03069,0 -0.05927,0.007 -0.08502,0.0219 -0.02575,0.0148 -0.05503,0.0406 -0.08819,0.0776 v 0.54434 h -0.147814 v -0.75001 h 0.147814 v 0.0988 c 0.07549,-0.0769 0.149578,-0.11571 0.221897,-0.11571 0.0949,0 0.168628,0.0462 0.220839,0.13793 0.07902,-0.0917 0.161572,-0.13793 0.24765,-0.13793 0.07267,0 0.132292,0.0268 0.179211,0.0801 0.04692,0.0533 0.0702,0.13476 0.0702,0.24412 v 0.44274 H 91.85122 v -0.44592 c 0,-0.0624 -0.0127,-0.11041 -0.0381,-0.14393 -0.0254,-0.0332 -0.06209,-0.0497 -0.109714,-0.0497 -0.06103,0 -0.11818,0.0318 -0.171097,0.0952" />
      <path
         inkscape:connector-curvature="0"
         id="path7981"
         style="fill:#1d2329;fill-opacity:1;fill-rule:nonzero;stroke:none;stroke-width:0.35277778"
         d="m 93.670843,212.24612 v 0.17921 c -0.119592,0.0653 -0.257528,0.0981 -0.414161,0.0981 -0.127,0 -0.23495,-0.0258 -0.323497,-0.0769 -0.08855,-0.0512 -0.15875,-0.12136 -0.210256,-0.21096 -0.0515,-0.09 -0.07761,-0.18698 -0.07761,-0.2914 0,-0.1658 0.05927,-0.30515 0.177447,-0.41839 0.118181,-0.11289 0.263878,-0.16969 0.437092,-0.16969 0.119592,0 0.252236,0.0314 0.398639,0.0938 v 0.17533 c -0.13335,-0.0765 -0.263172,-0.11465 -0.390525,-0.11465 -0.130175,0 -0.238478,0.0409 -0.324556,0.12347 -0.08608,0.0825 -0.129116,0.18591 -0.129116,0.30974 0,0.12524 0.04233,0.22825 0.127,0.30868 0.08502,0.0804 0.193322,0.12065 0.325261,0.12065 0.137936,0 0.272697,-0.0423 0.404283,-0.127" />
      <path
         inkscape:connector-curvature="0"
         id="path7985"
         style="fill:#1d2329;fill-opacity:1;fill-rule:nonzero;stroke:none;stroke-width:0.35277778"
         d="m 94.190908,211.89182 c -0.07091,0 -0.128764,0.0233 -0.174272,0.0702 -0.04551,0.0466 -0.06809,0.10584 -0.06809,0.17816 0,0.0716 0.02328,0.13017 0.06985,0.17533 0.04621,0.0455 0.106186,0.0681 0.178858,0.0681 0.07267,0 0.131939,-0.0229 0.178153,-0.0688 0.04621,-0.0459 0.06914,-0.10442 0.06914,-0.17639 0,-0.0709 -0.02399,-0.12982 -0.07197,-0.17639 -0.04833,-0.0469 -0.108656,-0.0702 -0.181681,-0.0702 m 0.0078,-0.13335 c 0.113595,0 0.208139,0.0367 0.283281,0.11042 0.07514,0.0737 0.112536,0.16616 0.112536,0.27764 0,0.1083 -0.0381,0.1979 -0.1143,0.26952 -0.0762,0.0716 -0.172156,0.10724 -0.28822,0.10724 -0.11183,0 -0.205316,-0.0363 -0.280458,-0.10901 -0.07549,-0.0723 -0.112889,-0.16298 -0.112889,-0.27164 0,-0.11006 0.03775,-0.20143 0.113947,-0.27446 0.07585,-0.073 0.17145,-0.10971 0.286103,-0.10971" />
      <path
         inkscape:connector-curvature="0"
         id="path7989"
         style="fill:#1d2329;fill-opacity:1;fill-rule:nonzero;stroke:none;stroke-width:0.35277778"
         d="m 95.373243,211.96629 v 0.54434 h -0.149931 v -0.41946 c 0,-0.0836 -0.01129,-0.14181 -0.03351,-0.17497 -0.02222,-0.0328 -0.06103,-0.0494 -0.116417,-0.0494 -0.03069,0 -0.05927,0.007 -0.08502,0.0219 -0.02575,0.0148 -0.05503,0.0406 -0.08819,0.0776 v 0.54434 h -0.147814 v -0.75001 h 0.147814 v 0.0988 c 0.07549,-0.0769 0.149578,-0.11571 0.221897,-0.11571 0.0949,0 0.168628,0.0462 0.220839,0.13793 0.07902,-0.0917 0.161572,-0.13793 0.24765,-0.13793 0.07267,0 0.132292,0.0268 0.179211,0.0801 0.04692,0.0533 0.0702,0.13476 0.0702,0.24412 v 0.44274 h -0.147814 v -0.44592 c 0,-0.0624 -0.0127,-0.11041 -0.0381,-0.14393 -0.0254,-0.0332 -0.06209,-0.0497 -0.109714,-0.0497 -0.06103,0 -0.11818,0.0318 -0.171097,0.0952" />
      <path
         inkscape:connector-curvature="0"
         id="path7993"
         style="fill:#1d2329;fill-opacity:1;fill-rule:nonzero;stroke:none;stroke-width:0.35277778"
         d="m 96.299638,211.90015 h -0.104775 v 0.46002 c 0.04551,0.024 0.09313,0.036 0.142875,0.036 0.0695,0 0.125942,-0.024 0.170392,-0.0723 0.0441,-0.0483 0.06597,-0.11078 0.06597,-0.18662 0,-0.049 -0.01023,-0.0921 -0.0314,-0.12947 -0.02081,-0.0374 -0.04904,-0.0649 -0.08502,-0.0818 -0.03598,-0.0173 -0.0889,-0.0258 -0.158044,-0.0258 m -0.256822,0.99413 v -1.13383 h 0.259644 c 0.132997,0 0.236361,0.0332 0.310445,0.0995 0.07408,0.0663 0.111477,0.15875 0.111477,0.27799 0,0.11254 -0.03493,0.20461 -0.104775,0.27693 -0.0695,0.0723 -0.158397,0.10831 -0.266347,0.10831 -0.04763,0 -0.100541,-0.0106 -0.158397,-0.0317 v 0.40287 z" />
      <path
         inkscape:connector-curvature="0"
         id="path7997"
         style="fill:#1d2329;fill-opacity:1;fill-rule:nonzero;stroke:none;stroke-width:0.35277778"
         d="m 97.362345,212.51077 v -0.096 c -0.03175,0.0342 -0.06773,0.061 -0.108656,0.0801 -0.04057,0.0187 -0.08114,0.0282 -0.121708,0.0282 -0.04762,0 -0.09137,-0.0116 -0.131586,-0.0353 -0.03986,-0.0236 -0.0702,-0.0557 -0.09066,-0.0963 -0.02046,-0.0402 -0.03104,-0.1076 -0.03104,-0.20143 v -0.42969 h 0.148166 v 0.42792 c 0,0.079 0.01129,0.13406 0.03422,0.1651 0.02258,0.0314 0.06244,0.0469 0.119591,0.0469 0.07126,0 0.131939,-0.0346 0.181681,-0.10372 v -0.53622 h 0.147814 v 0.75036 z" />
      <path
         inkscape:connector-curvature="0"
         id="path8001"
         style="fill:#1d2329;fill-opacity:1;fill-rule:nonzero;stroke:none;stroke-width:0.35277778"
         d="m 97.615957,211.87916 0.2794,-0.27481 v 0.15628 h 0.237419 v 0.13335 h -0.237419 v 0.36724 c 0,0.0857 0.03528,0.12876 0.106539,0.12876 0.05327,0 0.109361,-0.0173 0.168628,-0.0522 v 0.13758 c -0.05715,0.0321 -0.119239,0.048 -0.186267,0.048 -0.06809,0 -0.124531,-0.0197 -0.169333,-0.0596 -0.01411,-0.012 -0.02575,-0.0254 -0.03528,-0.0402 -0.0092,-0.0152 -0.01693,-0.0346 -0.02293,-0.0589 -0.0063,-0.024 -0.0095,-0.0702 -0.0095,-0.13793 v -0.33267 h -0.131233 z" />
      <path
         d="m 98.288775,211.76062 h 0.147814 v 0.75036 h -0.147814 z m 0.07408,-0.31467 c 0.02434,0 0.04516,0.008 0.06244,0.025 0.01764,0.0169 0.02611,0.0374 0.02611,0.0621 0,0.0236 -0.0085,0.0444 -0.02611,0.0617 -0.01729,0.0173 -0.0381,0.0261 -0.06244,0.0261 -0.02293,0 -0.04304,-0.009 -0.06033,-0.0265 -0.01764,-0.0176 -0.02611,-0.0381 -0.02611,-0.0614 0,-0.0229 0.0085,-0.043 0.02611,-0.0607 0.01729,-0.0176 0.0374,-0.0264 0.06033,-0.0264"
         style="fill:#1d2329;fill-opacity:1;fill-rule:nonzero;stroke:none;stroke-width:0.35277778"
         id="path8003"
         inkscape:connector-curvature="0" />
      <path
         inkscape:connector-curvature="0"
         id="path8007"
         style="fill:#1d2329;fill-opacity:1;fill-rule:nonzero;stroke:none;stroke-width:0.35277778"
         d="m 98.796987,211.76052 v 0.0917 c 0.06632,-0.0723 0.141464,-0.1083 0.225778,-0.1083 0.04657,0 0.09031,0.012 0.130528,0.0363 0.04022,0.0243 0.07055,0.0575 0.09172,0.0998 0.02081,0.042 0.0314,0.10901 0.0314,0.20073 v 0.43004 h -0.148167 v -0.42933 c 0,-0.0773 -0.01164,-0.13229 -0.03493,-0.1651 -0.02328,-0.0332 -0.06279,-0.0497 -0.117475,-0.0497 -0.0702,0 -0.129822,0.0349 -0.178858,0.10442 v 0.53975 H 98.64494 v -0.75036 z" />
      <path
         inkscape:connector-curvature="0"
         id="path8011"
         style="fill:#1d2329;fill-opacity:1;fill-rule:nonzero;stroke:none;stroke-width:0.35277778"
         d="m 99.714562,211.8897 c -0.04022,0 -0.07444,0.0138 -0.103011,0.0409 -0.02822,0.0272 -0.04233,0.06 -0.04233,0.0981 0,0.0388 0.01376,0.0706 0.04163,0.096 0.02787,0.0254 0.0628,0.0381 0.105481,0.0381 0.04163,0 0.07655,-0.013 0.104775,-0.0388 0.02787,-0.0261 0.04198,-0.0582 0.04198,-0.097 0,-0.0392 -0.01411,-0.072 -0.04233,-0.0981 -0.02822,-0.0261 -0.06385,-0.0392 -0.106186,-0.0392 m -0.03563,0.65722 c -0.05009,0 -0.09066,0.0106 -0.122413,0.0317 -0.03175,0.0212 -0.04762,0.0483 -0.04762,0.0815 0,0.0769 0.0695,0.11535 0.208138,0.11535 0.06562,0 0.116417,-0.01 0.1524,-0.0289 0.03598,-0.0194 0.05397,-0.0466 0.05397,-0.0819 0,-0.0346 -0.02258,-0.0628 -0.06809,-0.085 -0.04551,-0.0219 -0.104422,-0.0328 -0.176389,-0.0328 m -0.243063,-0.52669 c 0,-0.0801 0.02928,-0.14323 0.08749,-0.1898 0.05856,-0.0466 0.138289,-0.0699 0.239184,-0.0699 h 0.309032 v 0.11677 h -0.151341 c 0.02928,0.0296 0.04974,0.0568 0.06138,0.0815 0.01129,0.0243 0.01693,0.0526 0.01693,0.084 0,0.0392 -0.01129,0.0776 -0.03351,0.11535 -0.02223,0.0377 -0.0508,0.0667 -0.08608,0.0868 -0.03493,0.0201 -0.09243,0.0363 -0.172508,0.0483 -0.0568,0.008 -0.08502,0.0275 -0.08502,0.0579 0,0.0173 0.01023,0.0317 0.0314,0.0427 0.02081,0.0113 0.05856,0.0229 0.113594,0.0346 0.09172,0.0205 0.150989,0.036 0.177448,0.0476 0.02646,0.0113 0.05009,0.0275 0.07161,0.0487 0.036,0.036 0.054,0.0811 0.054,0.13547 0,0.0713 -0.0318,0.12805 -0.0949,0.17039 -0.06315,0.0423 -0.147814,0.0635 -0.253647,0.0635 -0.106892,0 -0.192264,-0.0212 -0.256117,-0.0639 -0.0635,-0.0427 -0.0956,-0.0998 -0.0956,-0.17181 0,-0.1016 0.06244,-0.16686 0.187325,-0.19649 -0.04974,-0.0321 -0.07479,-0.0639 -0.07479,-0.0952 0,-0.024 0.01058,-0.0459 0.03245,-0.0653 0.02117,-0.0197 0.05045,-0.0339 0.08678,-0.0434 -0.110067,-0.049 -0.1651,-0.12806 -0.1651,-0.23777" />
      <path
         inkscape:connector-curvature="0"
         id="path8015"
         style="fill:#1d2329;fill-opacity:1;fill-rule:nonzero;stroke:none;stroke-width:0.35277778"
         d="m 101.65212,212.24612 v 0.17921 c -0.11959,0.0653 -0.25753,0.0981 -0.41416,0.0981 -0.127,0 -0.23495,-0.0258 -0.3235,-0.0769 -0.0886,-0.0512 -0.15875,-0.12136 -0.21025,-0.21096 -0.0519,-0.09 -0.0773,-0.18698 -0.0773,-0.2914 0,-0.1658 0.0589,-0.30515 0.17709,-0.41839 0.11818,-0.11289 0.26388,-0.16969 0.43709,-0.16969 0.1196,0 0.25224,0.0314 0.39829,0.0938 v 0.17533 c -0.133,-0.0765 -0.26282,-0.11465 -0.39017,-0.11465 -0.13018,0 -0.23848,0.0409 -0.32456,0.12347 -0.0861,0.0825 -0.12911,0.18591 -0.12911,0.30974 0,0.12524 0.0423,0.22825 0.127,0.30868 0.085,0.0804 0.19332,0.12065 0.32526,0.12065 0.13793,0 0.27269,-0.0423 0.40428,-0.127" />
      <path
         inkscape:connector-curvature="0"
         id="path8019"
         style="fill:#1d2329;fill-opacity:1;fill-rule:nonzero;stroke:none;stroke-width:0.35277778"
         d="m 102.17212,211.89182 c -0.0709,0 -0.12876,0.0233 -0.17427,0.0702 -0.0455,0.0466 -0.0681,0.10584 -0.0681,0.17816 0,0.0716 0.0233,0.13017 0.0699,0.17533 0.0462,0.0455 0.10619,0.0681 0.17886,0.0681 0.0727,0 0.13194,-0.0229 0.17815,-0.0688 0.0462,-0.0459 0.0691,-0.10442 0.0691,-0.17639 0,-0.0709 -0.024,-0.12982 -0.072,-0.17639 -0.0483,-0.0469 -0.10866,-0.0702 -0.18168,-0.0702 m 0.008,-0.13335 c 0.1136,0 0.20814,0.0367 0.28328,0.11042 0.0751,0.0737 0.11254,0.16616 0.11254,0.27764 0,0.1083 -0.0381,0.1979 -0.1143,0.26952 -0.0762,0.0716 -0.17216,0.10724 -0.28822,0.10724 -0.11183,0 -0.20532,-0.0363 -0.28046,-0.10901 -0.0755,-0.0723 -0.11289,-0.16298 -0.11289,-0.27164 0,-0.11006 0.0378,-0.20143 0.11395,-0.27446 0.0758,-0.073 0.17145,-0.10971 0.2861,-0.10971" />
      <path
         inkscape:connector-curvature="0"
         id="path8023"
         style="fill:#1d2329;fill-opacity:1;fill-rule:nonzero;stroke:none;stroke-width:0.35277778"
         d="m 103.35449,211.96629 v 0.54434 h -0.14993 v -0.41946 c 0,-0.0836 -0.0113,-0.14181 -0.0335,-0.17497 -0.0222,-0.0328 -0.061,-0.0494 -0.11642,-0.0494 -0.0307,0 -0.0593,0.007 -0.085,0.0219 -0.0258,0.0148 -0.055,0.0406 -0.0882,0.0776 v 0.54434 h -0.14817 v -0.75001 h 0.14817 v 0.0988 c 0.0755,-0.0769 0.14957,-0.11571 0.22189,-0.11571 0.0949,0 0.16863,0.0462 0.22084,0.13793 0.079,-0.0917 0.16157,-0.13793 0.248,-0.13793 0.0723,0 0.13194,0.0268 0.17886,0.0801 0.0469,0.0533 0.0702,0.13476 0.0702,0.24412 v 0.44274 h -0.14781 v -0.44592 c 0,-0.0624 -0.0127,-0.11041 -0.0381,-0.14393 -0.0254,-0.0332 -0.0621,-0.0497 -0.10971,-0.0497 -0.061,0 -0.11818,0.0318 -0.1711,0.0952" />
      <path
         inkscape:connector-curvature="0"
         id="path8027"
         style="fill:#1d2329;fill-opacity:1;fill-rule:nonzero;stroke:none;stroke-width:0.35277778"
         d="m 104.28088,211.90015 h -0.10477 v 0.46002 c 0.0455,0.024 0.0931,0.036 0.14287,0.036 0.0695,0 0.12594,-0.024 0.17039,-0.0723 0.0441,-0.0483 0.066,-0.11078 0.066,-0.18662 0,-0.049 -0.0102,-0.0921 -0.0314,-0.12947 -0.0208,-0.0374 -0.049,-0.0649 -0.085,-0.0818 -0.036,-0.0173 -0.0889,-0.0258 -0.15804,-0.0258 m -0.25682,0.99413 v -1.13383 h 0.25964 c 0.133,0 0.23636,0.0332 0.3108,0.0995 0.0737,0.0663 0.11077,0.15875 0.11077,0.27799 0,0.11254 -0.0346,0.20461 -0.10442,0.27693 -0.0695,0.0723 -0.1584,0.10831 -0.26635,0.10831 -0.0476,0 -0.10054,-0.0106 -0.15839,-0.0317 v 0.40287 z" />
      <path
         inkscape:connector-curvature="0"
         id="path8031"
         style="fill:#1d2329;fill-opacity:1;fill-rule:nonzero;stroke:none;stroke-width:0.35277778"
         d="m 105.20075,212.36119 v -0.22331 l -0.0991,0.0385 c -0.0508,0.0201 -0.0864,0.0402 -0.10724,0.0607 -0.0208,0.0205 -0.0314,0.0459 -0.0314,0.0766 0,0.031 0.01,0.0564 0.03,0.0762 0.0198,0.0194 0.0452,0.0293 0.0769,0.0293 0.0469,0 0.0907,-0.0194 0.13088,-0.0579 m 0.1457,-0.30339 v 0.31891 c 0,0.0254 0.009,0.0381 0.0265,0.0381 0.018,0 0.0459,-0.013 0.0843,-0.0395 v 0.091 c -0.0339,0.0212 -0.0607,0.0356 -0.0808,0.0434 -0.0205,0.008 -0.0416,0.0116 -0.0639,0.0116 -0.0631,0 -0.10054,-0.0247 -0.11183,-0.0737 -0.0635,0.049 -0.13053,0.0737 -0.20214,0.0737 -0.0526,0 -0.096,-0.0173 -0.13088,-0.0519 -0.0353,-0.0346 -0.0526,-0.078 -0.0526,-0.13017 0,-0.0473 0.0169,-0.0896 0.0508,-0.127 0.0342,-0.037 0.0822,-0.0667 0.145,-0.0885 l 0.18979,-0.0653 v -0.0402 c 0,-0.0914 -0.0452,-0.13688 -0.13511,-0.13688 -0.0808,0 -0.15946,0.0416 -0.23601,0.12489 v -0.16122 c 0.0575,-0.0674 0.1404,-0.10125 0.24835,-0.10125 0.0808,0 0.1457,0.0212 0.19474,0.0635 0.0162,0.0138 0.0307,0.0317 0.0437,0.0543 0.013,0.0226 0.0212,0.0452 0.0247,0.0677 0.004,0.0226 0.005,0.0653 0.005,0.12841" />
      <path
         inkscape:connector-curvature="0"
         id="path8035"
         style="fill:#1d2329;fill-opacity:1;fill-rule:nonzero;stroke:none;stroke-width:0.35277778"
         d="m 105.73249,211.76052 v 0.0917 c 0.0663,-0.0723 0.14146,-0.1083 0.22578,-0.1083 0.0466,0 0.0903,0.012 0.13053,0.0363 0.0402,0.0243 0.0705,0.0575 0.0917,0.0998 0.0208,0.042 0.0314,0.10901 0.0314,0.20073 v 0.43004 h -0.14816 v -0.42933 c 0,-0.0773 -0.0116,-0.13229 -0.0349,-0.1651 -0.0233,-0.0332 -0.0628,-0.0497 -0.11747,-0.0497 -0.0702,0 -0.12982,0.0349 -0.17886,0.10442 v 0.53975 h -0.15205 v -0.75036 z" />
      <path
         inkscape:connector-curvature="0"
         id="path8039"
         style="fill:#1d2329;fill-opacity:1;fill-rule:nonzero;stroke:none;stroke-width:0.35277778"
         d="m 106.84473,211.76052 h 0.16545 l -0.52846,1.13383 h -0.16545 l 0.25259,-0.54187 -0.28822,-0.59196 h 0.16898 l 0.20038,0.42227 z" />
      <path
         inkscape:connector-curvature="0"
         id="path8043"
         style="fill:#1d2329;fill-opacity:1;fill-rule:nonzero;stroke:none;stroke-width:0.35277778"
         d="m 107.58831,212.2065 h -0.0646 v -0.4251 h 0.10407 l 0.10725,0.33973 0.10371,-0.33973 h 0.10195 v 0.4251 h -0.0649 v -0.35666 l -0.10865,0.35666 h -0.0638 l -0.11501,-0.36266 z m -0.25188,0 h -0.0709 v -0.36477 h -0.13794 v -0.0603 h 0.34819 v 0.0603 h -0.13934 z" />
    </g>
  </g>
</svg>
