<svg width="183" height="182" viewBox="0 0 183 182" fill="none" xmlns="http://www.w3.org/2000/svg">
<path d="M166.912 41.4014C159.465 31.4728 142.843 28.7283 121.097 33.7539C120.631 32.6359 120.149 31.5379 119.652 30.4683C121.414 28.5659 122.472 26.1188 122.651 23.5326C122.831 20.9464 122.122 18.3764 120.64 16.2487C119.159 14.1211 116.995 12.5635 114.508 11.8342C112.02 11.105 109.358 11.2479 106.962 12.2391C102.085 7.89496 96.8593 5.6875 91.4 5.6875C85.1299 5.6875 79.1772 8.57995 73.7076 14.2845C69.1256 19.0627 65.0953 25.608 61.7024 33.7535C39.9562 28.7286 23.3349 31.4732 15.8881 41.4011C7.41768 52.6922 12.2634 71.1264 28.8155 91C27.9126 92.0842 27.0385 93.1707 26.1932 94.2597C23.7924 93.5907 21.2382 93.7293 18.9239 94.6541C16.6095 95.579 14.6633 97.2389 13.3848 99.3783C12.1063 101.518 11.5663 104.018 11.8481 106.494C12.1298 108.971 13.2176 111.286 14.944 113.083C10.4082 124.226 10.7218 133.707 15.8878 140.596C20.8978 147.275 30.0561 150.705 42.1356 150.704C48.0129 150.704 54.5845 149.889 61.7024 148.244C65.0946 156.39 69.1256 162.935 73.7076 167.713C79.1772 173.42 85.1299 176.312 91.4 176.312C97.6701 176.312 103.623 173.42 109.092 167.715C113.674 162.938 117.704 156.393 121.097 148.249C122.618 148.6 124.12 148.915 125.604 149.192C125.917 151.869 127.172 154.348 129.143 156.186C131.114 158.024 133.675 159.103 136.367 159.23C139.06 159.356 141.71 158.522 143.845 156.877C145.98 155.232 147.461 152.882 148.025 150.246C156.52 149.092 163.026 145.785 166.912 140.599C175.382 129.308 170.538 110.874 153.985 91C170.537 71.1257 175.382 52.6918 166.912 41.4014ZM162.362 44.8139C168.951 53.5972 164.273 69.4621 150.194 86.6505C143.922 79.8207 137.085 73.5311 129.758 67.8483C128.422 57.4996 126.158 47.6616 123.154 39.1204C141.961 34.9259 156.495 36.9919 162.362 44.8139ZM117.609 141.496C110.921 139.63 104.373 137.292 98.016 134.499C104.167 131.323 110.151 127.833 115.943 124.043C118.44 122.41 120.891 120.728 123.297 118.999C122.071 126.651 120.168 134.18 117.61 141.496L117.609 141.496ZM65.1885 141.496C62.6306 134.18 60.7273 126.651 59.501 118.998C61.9011 120.722 64.3525 122.404 66.8553 124.042C72.6474 127.833 78.631 131.323 84.7823 134.499C78.4251 137.292 71.8779 139.63 65.1899 141.496L65.1885 141.496ZM65.1885 40.5032C71.8766 42.3694 78.424 44.7077 84.7812 47.5006C78.63 50.6759 72.6464 54.1659 66.8542 57.9567C64.3569 59.5897 61.9056 61.2711 59.5003 63.0008C60.7272 55.3481 62.6312 47.8194 65.1899 40.5035L65.1885 40.5032ZM69.9667 119.282C65.9797 116.675 62.0966 113.929 58.4026 111.111C56.8973 97.7456 56.8973 84.2537 58.4026 70.8886C62.0966 68.0701 65.9801 65.3238 69.9667 62.7168C76.8457 58.2114 84.0046 54.1487 91.4 50.5533C98.795 54.1489 105.954 58.2118 112.832 62.7175C116.819 65.3245 120.702 68.0705 124.396 70.889C125.151 77.566 125.528 84.2804 125.525 91C125.528 97.7196 125.151 104.434 124.396 111.111C120.702 113.93 116.819 116.676 112.832 119.283C105.953 123.788 98.7949 127.851 91.4 131.447C84.005 127.851 76.8465 123.788 69.9681 119.283L69.9667 119.282ZM52.2057 106.169C46.5625 101.498 41.261 96.4285 36.3418 91C41.262 85.5712 46.564 80.5011 52.2075 75.8286C51.7987 80.8204 51.5875 85.8983 51.5875 91C51.5875 96.1017 51.7987 101.178 52.2071 106.17L52.2057 106.169ZM117.61 40.5035C120.168 47.8198 122.071 55.3487 123.298 63.0015C120.898 61.2775 118.446 59.5961 115.943 57.9574C110.151 54.1664 104.168 50.6762 98.0164 47.5009C104.374 44.7081 110.922 42.3698 117.61 40.5035ZM130.593 75.8304C136.237 80.5018 141.539 85.5713 146.458 91C141.538 96.4288 136.236 101.499 130.593 106.171C131.001 101.18 131.213 96.1017 131.213 91C131.213 85.8983 131.001 80.8222 130.593 75.8304ZM116.994 22.75C116.994 23.8749 116.66 24.9745 116.035 25.9098C115.41 26.8451 114.522 27.5741 113.483 28.0046C112.444 28.435 111.3 28.5477 110.197 28.3282C109.093 28.1088 108.08 27.5671 107.285 26.7717C106.489 25.9763 105.948 24.9628 105.728 23.8596C105.509 22.7563 105.621 21.6127 106.052 20.5735C106.482 19.5342 107.211 18.646 108.146 18.021C109.082 17.3961 110.181 17.0625 111.306 17.0625C112.814 17.0643 114.26 17.6641 115.326 18.7303C116.392 19.7965 116.992 21.2421 116.994 22.75ZM91.4 11.375C95.1211 11.375 98.7906 12.853 102.339 15.7647C100.841 17.6836 99.9997 20.0323 99.9372 22.4653C99.8747 24.8983 100.595 27.2872 101.991 29.2804C103.388 31.2737 105.387 32.7661 107.695 33.5381C110.004 34.3101 112.499 34.3209 114.813 33.569C115.054 34.0996 115.291 34.6364 115.524 35.1793C107.249 37.5403 99.1808 40.5739 91.4 44.2498C83.618 40.5731 75.5484 37.5389 67.2719 35.1775C73.7553 20.0044 82.4543 11.375 91.4 11.375ZM20.4378 44.8139C26.3048 36.9936 40.8381 34.9255 59.646 39.1208C56.6423 47.6605 54.379 57.4964 53.0432 67.8451C45.7157 73.5293 38.8792 79.8196 32.6058 86.6494C18.5268 69.4629 13.8485 53.5976 20.4378 44.8139ZM23.15 99.5312C24.2749 99.5312 25.3745 99.8648 26.3098 100.49C27.2451 101.115 27.9741 102.003 28.4046 103.042C28.8351 104.081 28.9477 105.225 28.7282 106.328C28.5088 107.432 27.9671 108.445 27.1717 109.24C26.3763 110.036 25.3629 110.578 24.2596 110.797C23.1563 111.016 22.0128 110.904 20.9735 110.473C19.9342 110.043 19.046 109.314 18.421 108.379C17.7961 107.443 17.4625 106.344 17.4625 105.219C17.4643 103.711 18.0641 102.265 19.1303 101.199C20.1965 100.133 21.6421 99.533 23.15 99.5312ZM20.4381 137.186C15.8323 131.043 17.31 122.754 19.863 116.107C22.2925 116.842 24.898 116.743 27.2645 115.825C29.631 114.908 31.6225 113.225 32.9217 111.044C34.2209 108.864 34.7531 106.311 34.4337 103.793C34.1142 101.275 32.9613 98.9365 31.1587 97.1496C31.6303 96.5489 32.1124 95.9484 32.6051 95.3481C38.8777 102.179 45.7143 108.469 53.0425 114.152C54.3783 124.501 56.6416 134.339 59.646 142.88C40.8392 147.074 26.3052 145.008 20.4381 137.186ZM91.4 170.625C82.4543 170.625 73.7553 161.996 67.2719 146.822C75.5485 144.461 83.6181 141.427 91.4 137.75C99.1821 141.427 107.252 144.461 115.528 146.822C109.045 161.996 100.346 170.625 91.4 170.625ZM136.9 153.562C135.775 153.562 134.676 153.229 133.74 152.604C132.805 151.979 132.076 151.091 131.645 150.052C131.215 149.012 131.102 147.869 131.322 146.765C131.541 145.662 132.083 144.649 132.878 143.853C133.674 143.058 134.687 142.516 135.79 142.297C136.894 142.077 138.037 142.19 139.077 142.62C140.116 143.051 141.004 143.78 141.629 144.715C142.254 145.65 142.588 146.75 142.588 147.875C142.586 149.383 141.986 150.828 140.92 151.895C139.854 152.961 138.408 153.561 136.9 153.562ZM162.361 137.187C159.482 141.03 154.467 143.545 147.775 144.54C147.087 142.3 145.724 140.326 143.872 138.889C142.02 137.453 139.769 136.624 137.428 136.515C135.086 136.407 132.768 137.024 130.791 138.283C128.814 139.542 127.274 141.381 126.382 143.549C125.319 143.347 124.243 143.123 123.154 142.879C126.158 134.339 128.421 124.503 129.757 114.155C137.084 108.471 143.921 102.181 150.194 95.3506C164.273 112.537 168.951 128.402 162.361 137.187Z" fill="#1D5561"/>
<path d="M91.3999 68.25C86.9004 68.25 82.5019 69.5843 78.7607 72.0841C75.0195 74.5839 72.1035 78.1369 70.3817 82.2939C68.6598 86.451 68.2092 91.0252 69.087 95.4383C69.9649 99.8514 72.1316 103.905 75.3132 107.087C78.4949 110.268 82.5485 112.435 86.9616 113.313C91.3747 114.191 95.9489 113.74 100.106 112.018C104.263 110.296 107.816 107.38 110.316 103.639C112.816 99.898 114.15 95.4995 114.15 91C114.143 84.9684 111.744 79.1858 107.479 74.9208C103.214 70.6558 97.4315 68.2568 91.3999 68.25ZM91.3999 108.062C88.0253 108.062 84.7264 107.062 81.9205 105.187C79.1146 103.312 76.9276 100.647 75.6362 97.5295C74.3448 94.4118 74.0069 90.9811 74.6653 87.6713C75.3236 84.3615 76.9487 81.3212 79.3349 78.935C81.7211 76.5488 84.7614 74.9237 88.0712 74.2653C91.381 73.607 94.8117 73.9449 97.9294 75.2363C101.047 76.5277 103.712 78.7147 105.587 81.5206C107.462 84.3265 108.462 87.6254 108.462 91C108.457 95.5237 106.658 99.8606 103.459 103.059C100.26 106.258 95.9236 108.057 91.3999 108.062Z" fill="#1991B7"/>
</svg>
