<svg width="182" height="183" viewBox="0 0 182 183" fill="none" xmlns="http://www.w3.org/2000/svg">
<g clip-path="url(#clip0)">
<path d="M178.043 71.6174C180.228 71.6174 182 69.8458 182 67.6607C182 65.4756 180.228 63.7041 178.043 63.7041H166.174V24.1391H178.043C180.228 24.1391 182 22.3676 182 20.1825C182 17.9974 180.228 16.2262 178.043 16.2262H166.174V4.35667C166.174 2.17156 164.402 0.400024 162.217 0.400024C160.032 0.400024 158.261 2.17156 158.261 4.35667V16.2262H118.696V4.35667C118.696 2.17156 116.924 0.400024 114.739 0.400024C112.554 0.400024 110.782 2.17156 110.782 4.35667V16.2262H71.2173V4.35667C71.2173 2.17156 69.4458 0.400024 67.2607 0.400024C65.0756 0.400024 63.3041 2.17156 63.3041 4.35667V16.2262H23.7391V4.35667C23.7391 2.17156 21.9676 0.400024 19.7825 0.400024C17.5974 0.400024 15.8262 2.17156 15.8262 4.35667V16.2262H3.95664C1.77153 16.2262 0 17.9974 0 20.1825C0 22.3676 1.77153 24.1391 3.95664 24.1391H15.8262V63.7045H3.95664C1.77153 63.7045 0 65.4756 0 67.6607C0 69.8458 1.77153 71.6174 3.95664 71.6174H15.8262V111.183H3.95664C1.77153 111.183 0 112.954 0 115.139C0 117.324 1.77153 119.096 3.95664 119.096H15.8262V158.661H3.95664C1.77153 158.661 0 160.432 0 162.617C0 164.802 1.77153 166.574 3.95664 166.574H15.8262V178.443C15.8262 180.628 17.5977 182.4 19.7828 182.4C21.968 182.4 23.7391 180.628 23.7391 178.443V166.574H63.3044V178.443C63.3044 180.628 65.076 182.4 67.2611 182.4C69.4462 182.4 71.2177 180.628 71.2177 178.443V166.574H110.783V178.443C110.783 180.628 112.555 182.4 114.74 182.4C116.925 182.4 118.696 180.628 118.696 178.443V166.574H158.261V178.443C158.261 180.628 160.032 182.4 162.218 182.4C164.403 182.4 166.174 180.628 166.174 178.443V166.574H178.043C180.228 166.574 182 164.802 182 162.617C182 160.432 180.228 158.661 178.043 158.661H166.174V119.096H178.043C180.228 119.096 182 117.324 182 115.139C182 112.954 180.228 111.182 178.043 111.182H166.174V71.6174H178.043ZM158.261 24.1391V63.7045H118.696V24.1391H158.261ZM110.783 24.1391V63.7045H71.2173V24.1391H110.783ZM110.783 71.6174V111.183H71.2173V71.6174H110.783ZM23.7391 24.1391H63.3044V63.7045H23.7391V24.1391ZM23.7391 71.6174H63.3044V111.183H23.7391V71.6174ZM23.7391 158.661V119.096H63.3044V158.661H23.7391ZM71.2173 158.661V119.096H110.783V158.661H71.2173ZM158.261 158.661H118.696V119.096H158.261V158.661ZM158.261 111.183H118.696V71.6174H158.261V111.183Z" fill="#455A64"/>
<path d="M19.7824 182.4C17.5973 182.4 15.8258 180.628 15.8258 178.443V4.35667C15.8262 2.17156 17.5973 0.400024 19.7824 0.400024C21.9676 0.400024 23.7391 2.17156 23.7391 4.35667V178.443C23.7391 180.628 21.9676 182.4 19.7824 182.4Z" fill="#1991B7"/>
<path d="M67.2607 182.4C65.0756 182.4 63.3041 180.628 63.3041 178.443V4.35667C63.3044 2.17156 65.0756 0.400024 67.2607 0.400024C69.4458 0.400024 71.2174 2.17156 71.2174 4.35667V178.443C71.2174 180.628 69.4458 182.4 67.2607 182.4Z" fill="#697177"/>
<path d="M114.739 182.4C112.554 182.4 110.782 180.628 110.782 178.443V4.35667C110.783 2.17156 112.554 0.400024 114.739 0.400024C116.924 0.400024 118.696 2.17156 118.696 4.35667V178.443C118.696 180.628 116.924 182.4 114.739 182.4Z" fill="#1991B7"/>
<path d="M162.217 182.4C160.032 182.4 158.26 180.628 158.26 178.443V4.35667C158.261 2.17156 160.032 0.400024 162.217 0.400024C164.402 0.400024 166.174 2.17156 166.174 4.35667V178.443C166.174 180.628 164.402 182.4 162.217 182.4Z" fill="#1D5561"/>
<path d="M178.043 166.574H3.95664C1.77153 166.574 0 164.802 0 162.617C0 160.432 1.77153 158.661 3.95664 158.661H178.043C180.228 158.661 182 160.432 182 162.617C182 164.802 180.228 166.574 178.043 166.574Z" fill="#1991B7"/>
<path d="M178.043 119.096H3.95664C1.77153 119.096 0 117.324 0 115.139C0 112.954 1.77153 111.182 3.95664 111.182H178.043C180.228 111.182 182 112.954 182 115.139C182 117.324 180.228 119.096 178.043 119.096Z" fill="#1D5561"/>
<path d="M178.043 71.6173H3.95664C1.77153 71.6173 0 69.8458 0 67.6607C0 65.4756 1.77153 63.704 3.95664 63.704H178.043C180.228 63.704 182 65.4756 182 67.6607C182 69.8458 180.228 71.6173 178.043 71.6173Z" fill="#1991B7"/>
<path d="M178.043 24.1391H3.95664C1.77153 24.1391 0 22.3676 0 20.1825C0 17.9974 1.77153 16.2258 3.95664 16.2258H178.043C180.228 16.2258 182 17.9974 182 20.1825C182 22.3676 180.228 24.1391 178.043 24.1391Z" fill="#1D5561"/>
</g>
<defs>
<clipPath id="clip0">
<rect width="182" height="182" fill="white" transform="translate(0 0.400024)"/>
</clipPath>
</defs>
</svg>
