<svg width="100" height="100" viewBox="0 0 100 100" fill="none" xmlns="http://www.w3.org/2000/svg">
<path d="M85.3516 23.6328H76.3672V14.8438C76.3672 9.99746 72.4244 6.05469 67.5781 6.05469C65.625 6.05469 34.375 6.05469 32.4219 6.05469C27.5756 6.05469 23.6328 9.99746 23.6328 14.8438V23.6328H14.6484C6.57129 23.6328 0 30.2041 0 38.2812V79.2969C0 87.374 6.57129 93.9453 14.6484 93.9453H85.3516C93.4287 93.9453 100 87.374 100 79.2969V38.2812C100 30.2041 93.4287 23.6328 85.3516 23.6328ZM29.4922 14.8438C29.4922 13.2283 30.8064 11.9141 32.4219 11.9141H67.5781C69.1936 11.9141 70.5078 13.2283 70.5078 14.8438V23.6328H29.4922V14.8438ZM95.3846 79.2969C95.3846 84.1432 90.1979 89.2308 85.3516 89.2308H14.6484C9.80215 89.2308 5 84.1432 5 79.2969V37.6923C5 32.846 9.80215 28.4615 14.6484 28.4615H23.6328V32.4219C23.6328 34.0398 24.9445 35.3516 26.5625 35.3516C28.1805 35.3516 29.4922 34.0398 29.4922 32.4219V28.4615H70.5078V32.4219C70.5078 34.0398 71.8195 35.3516 73.4375 35.3516C75.0555 35.3516 76.3672 34.0398 76.3672 32.4219V28.4615H85C89.8463 28.4615 95.3846 33.435 95.3846 38.2812V79.2969Z" fill="#1D5561"/>
<path d="M55.8594 58.7891H52.9297V55.8594C52.9297 54.2414 51.618 52.9297 50 52.9297C48.382 52.9297 47.0703 54.2414 47.0703 55.8594V58.7891H44.1406C42.5227 58.7891 41.2109 60.1008 41.2109 61.7188C41.2109 63.3367 42.5227 64.6484 44.1406 64.6484H47.0703V67.5781C47.0703 69.1961 48.382 70.5078 50 70.5078C51.618 70.5078 52.9297 69.1961 52.9297 67.5781V64.6484H55.8594C57.4773 64.6484 58.7891 63.3367 58.7891 61.7188C58.7891 60.1008 57.4773 58.7891 55.8594 58.7891Z" fill="#697177"/>
<path d="M50 41.2109C38.692 41.2109 29.4922 50.4107 29.4922 61.7188C29.4922 73.0268 38.692 82.2266 50 82.2266C61.308 82.2266 70.5078 73.0268 70.5078 61.7188C70.5078 50.4107 61.308 41.2109 50 41.2109ZM50 76.3672C41.9229 76.3672 35.3516 69.7959 35.3516 61.7188C35.3516 53.6416 41.9229 47.0703 50 47.0703C58.0771 47.0703 64.6484 53.6416 64.6484 61.7188C64.6484 69.7959 58.0771 76.3672 50 76.3672Z" fill="#1991B7"/>
</svg>
