<svg width="183" height="182" viewBox="0 0 183 182" fill="none" xmlns="http://www.w3.org/2000/svg">
<path d="M157.089 171.296L85.5057 133.395C83.6402 132.405 81.3652 132.541 79.6021 133.736L24.8656 171.637C22.8181 173.059 21.9309 175.641 22.6816 178.019C23.4096 180.373 25.6164 182 28.0961 182H154.415C157.02 182 159.307 180.225 159.932 177.677C160.569 175.141 159.386 172.513 157.089 171.296Z" fill="#1D5561"/>
<path d="M181.044 160.49L164.209 84.6983C163.8 82.8441 162.492 81.3313 160.729 80.6374C158.954 79.9435 156.963 80.1824 155.416 81.2516L100.669 119.153C99.0306 120.291 98.1092 122.19 98.2343 124.158C98.3481 126.149 99.4969 127.923 101.249 128.845L172.82 166.746C173.662 167.19 174.572 167.417 175.482 167.417C176.699 167.417 177.916 167.031 178.929 166.246C180.692 164.903 181.522 162.663 181.044 160.49Z" fill="#1991B7"/>
<path d="M141.437 72.2426C140.686 69.8652 138.491 68.25 135.999 68.25H84.0839C74.6426 85.3466 60.6741 101.693 54.9298 108.085C51.6993 111.68 47.0696 113.75 42.2353 113.75C37.4009 113.75 32.7713 111.68 29.5408 108.085C27.3226 105.617 23.8874 101.67 19.9516 96.7785L6.18788 158.727C5.68738 161.013 6.6315 163.368 8.56525 164.676C9.52075 165.324 10.6355 165.643 11.7389 165.643C12.8764 165.643 14.0025 165.313 14.9808 164.63L139.23 78.6012C141.289 77.2021 142.165 74.62 141.437 72.2426Z" fill="#697177"/>
<path d="M42.2354 0C20.2816 0 2.42285 17.8588 2.42285 39.8125C2.42285 60.242 34.3639 96.4259 38.0039 100.487C39.0845 101.681 40.6201 102.375 42.2354 102.375C43.8506 102.375 45.3862 101.681 46.4669 100.487C50.1068 96.4259 82.0479 60.242 82.0479 39.8125C82.0479 17.8588 64.1891 0 42.2354 0ZM42.2354 56.875C32.8169 56.875 25.1729 49.231 25.1729 39.8125C25.1729 30.394 32.8169 22.75 42.2354 22.75C51.6539 22.75 59.2979 30.394 59.2979 39.8125C59.2979 49.231 51.6539 56.875 42.2354 56.875Z" fill="#1D5561"/>
</svg>
