<svg width="20" height="25" viewBox="0 0 20 25" fill="none" xmlns="http://www.w3.org/2000/svg">
<g clip-path="url(#clip0)">
<path d="M16.7034 13.0493C16.7379 16.7664 19.9643 18.0033 20 18.0191C19.9727 18.1064 19.4845 19.7819 18.3002 21.5126C17.2764 23.0089 16.2139 24.4997 14.5401 24.5306C12.8955 24.5609 12.3666 23.5553 10.4863 23.5553C8.60655 23.5553 8.01898 24.4997 6.46212 24.5609C4.84649 24.622 3.6162 22.9429 2.58394 21.452C0.474632 18.4025 -1.13731 12.8349 1.02712 9.0766C2.10237 7.21023 4.02391 6.02836 6.10958 5.99806C7.69609 5.96779 9.19356 7.06541 10.1634 7.06541C11.1327 7.06541 12.9524 5.74543 14.8654 5.93929C15.6663 5.97262 17.9143 6.26279 19.3579 8.37573C19.2415 8.44784 16.6755 9.94167 16.7034 13.0493V13.0493ZM13.6124 3.92177C14.4702 2.8835 15.0475 1.43813 14.89 0C13.6536 0.0496914 12.1586 0.82389 11.2717 1.86159C10.477 2.78052 9.78092 4.25133 9.96872 5.661C11.3468 5.76762 12.7546 4.96071 13.6124 3.92178" fill="white"/>
</g>
<defs>
<clipPath id="clip0">
<rect width="20" height="24.6094" fill="white"/>
</clipPath>
</defs>
</svg>
