<svg width="21" height="24" viewBox="0 0 21 24" fill="none" xmlns="http://www.w3.org/2000/svg">
<path d="M1.75002 23.25C1.53681 23.2534 1.32484 23.2169 1.12502 23.1425L11.1925 13.0712L14.525 16.4075L2.95627 22.9075C2.58981 23.1222 2.17467 23.2401 1.75002 23.25ZM0.295022 22.4187C0.0903701 22.0481 -0.011479 21.6294 2.211e-05 21.2062V2.82496C-0.00166732 2.54593 0.0405142 2.26838 0.125022 2.00246L10.4163 12.2962L0.291272 22.4212L0.295022 22.4187ZM15.5188 15.8462L11.9675 12.2975L15.8838 8.38246L19.3625 10.3362C20.0303 10.6351 20.4771 11.2798 20.5225 12.01C20.4773 12.7409 20.0299 13.3863 19.3613 13.685L15.5188 15.8462ZM11.1925 11.5175L0.767522 1.09371C1.05375 0.882052 1.40029 0.76771 1.75627 0.767456C2.1767 0.782384 2.58686 0.901352 2.95002 1.11371L14.8888 7.82371L11.1938 11.5175H11.1925Z" fill="white"/>
</svg>
