<svg width="182" height="183" viewBox="0 0 182 183" fill="none" xmlns="http://www.w3.org/2000/svg">
<g clip-path="url(#clip0)">
<path d="M178.445 0.400024H48.6992C46.7363 0.400024 45.1445 1.99146 45.1445 3.95471C45.1445 5.91797 46.7363 7.5094 48.6992 7.5094H58.2969V58.6969H7.10938V7.5094H16.707C18.6699 7.5094 20.2617 5.91797 20.2617 3.95471C20.2617 1.99146 18.6699 0.400024 16.707 0.400024H3.55469C1.59179 0.400024 0 1.99146 0 3.95471V178.845C0 180.809 1.59179 182.4 3.55469 182.4H178.445C180.408 182.4 182 180.809 182 178.845V3.95471C182 1.99146 180.408 0.400024 178.445 0.400024ZM116.594 124.103V175.291H65.4062V124.103H116.594ZM65.4062 116.994V65.8063H116.594V116.994H65.4062ZM123.703 65.8063H174.891V116.994H123.703V65.8063ZM174.891 58.6969H123.703V7.5094H174.891V58.6969ZM65.4062 7.5094H116.594V58.6969H65.4062V7.5094ZM58.2969 65.8063V116.994H7.10938V65.8063H58.2969ZM7.10938 124.103H58.2969V175.291H7.10938V124.103ZM123.703 175.291V124.103H174.891V175.291H123.703Z" fill="#1D5561"/>
<path d="M29.6638 80.7136H32.1876V105.596C32.1876 107.56 33.7794 109.151 35.7423 109.151C37.7052 109.151 39.297 107.56 39.297 105.596V77.1589C39.297 75.1956 37.7052 73.6042 35.7423 73.6042H29.6638C27.7009 73.6042 26.1091 75.1956 26.1091 77.1589C26.1091 79.1221 27.7009 80.7136 29.6638 80.7136Z" fill="#1991B7"/>
<path d="M40.5253 131.923H24.8811C22.9182 131.923 21.3264 133.515 21.3264 135.478C21.3264 137.441 22.9182 139.033 24.8811 139.033H35.0795L24.7702 162.485C23.98 164.283 24.7965 166.38 26.5938 167.17C27.0594 167.375 27.5446 167.471 28.0227 167.471C29.3899 167.471 30.6934 166.678 31.2785 165.346L43.7792 136.909C44.2623 135.81 44.1582 134.541 43.502 133.535C42.8458 132.53 41.7261 131.923 40.5253 131.923Z" fill="#1D5561"/>
<path d="M98.8871 88.6625C99.9624 87.1173 100.595 85.2426 100.595 83.2217C100.595 77.9558 96.311 73.6717 91.0451 73.6717C85.7792 73.6717 81.4951 77.9558 81.4951 83.2217C81.4951 85.2426 82.1278 87.1173 83.2031 88.6625C80.7898 90.8209 79.2673 93.9558 79.2673 97.4405C79.2673 103.935 84.5507 109.219 91.0454 109.219C97.5402 109.219 102.824 103.935 102.824 97.4405C102.823 93.9555 101.301 90.8209 98.8871 88.6625ZM88.6044 83.2217C88.6044 81.8759 89.6993 80.7811 91.0451 80.7811C92.3909 80.7811 93.4857 81.8759 93.4857 83.2217C93.4857 84.5675 92.3909 85.6624 91.0451 85.6624C89.6993 85.6624 88.6044 84.5675 88.6044 83.2217ZM91.0451 102.109C88.4708 102.109 86.3763 100.015 86.3763 97.4405C86.3763 94.8662 88.4708 92.7717 91.0451 92.7717C93.6194 92.7717 95.7138 94.8662 95.7138 97.4405C95.7138 100.015 93.6194 102.109 91.0451 102.109Z" fill="#697177"/>
<path d="M91.0452 27.0971C90.8298 27.0971 90.6158 27.1035 90.4036 27.1149C92.7024 23.616 95.1007 21.7456 95.1828 21.6826C96.7476 20.5085 97.0704 18.2893 95.9012 16.7178C94.7296 15.1424 92.5019 14.8157 90.9279 15.987C90.5205 16.2902 80.9943 23.524 79.3265 37.0958C79.2298 37.7047 79.1782 38.3285 79.1782 38.9641C79.1782 45.5076 84.5021 50.8314 91.0455 50.8314C97.589 50.8314 102.913 45.5076 102.913 38.9641C102.913 32.4206 97.5887 27.0971 91.0452 27.0971ZM91.0452 43.7221C88.4215 43.7221 86.2872 41.5878 86.2872 38.9641C86.2872 36.3404 88.4215 34.2062 91.0452 34.2062C93.6689 34.2062 95.8031 36.3404 95.8031 38.9641C95.8031 41.5878 93.6689 43.7221 91.0452 43.7221Z" fill="#1991B7"/>
<path d="M32.7031 7.5094C33.638 7.5094 34.5551 7.12905 35.2159 6.46788C35.8775 5.8067 36.2578 4.88959 36.2578 3.95471C36.2578 3.01983 35.8775 2.10272 35.2159 1.44155C34.5551 0.780376 33.638 0.400024 32.7031 0.400024C31.7682 0.400024 30.8511 0.780376 30.19 1.44155C29.5284 2.10272 29.1484 3.01983 29.1484 3.95471C29.1484 4.88959 29.5284 5.8067 30.19 6.46788C30.8515 7.12905 31.7682 7.5094 32.7031 7.5094Z" fill="#1D5561"/>
<path d="M149.337 109.219C146.719 109.219 144.231 108.398 142.127 106.838C140.55 105.668 140.22 103.442 141.389 101.865C142.559 100.288 144.785 99.9579 146.362 101.127C147.258 101.792 148.323 102.131 149.447 102.108C152.059 102.056 154.211 99.9743 154.346 97.3694C154.418 95.9778 153.931 94.6565 152.976 93.6498C152.019 92.6424 150.729 92.0872 149.342 92.0872C147.24 92.0872 146.426 92.3854 145.334 92.8766C145.224 92.9264 145.152 92.9616 145.127 92.9741C143.932 93.5759 142.492 93.46 141.414 92.6669C140.336 91.8742 139.787 90.5469 140.005 89.2263L142.09 76.6449C142.374 74.9294 143.858 73.6714 145.596 73.6714H156.119C158.082 73.6714 159.674 75.2628 159.674 77.2261C159.674 79.1893 158.082 80.7808 156.119 80.7808H148.611L147.909 85.0179C148.355 84.9913 148.83 84.9778 149.342 84.9778C152.649 84.9778 155.852 86.3545 158.131 88.7546C160.443 91.1892 161.62 94.3796 161.446 97.738C161.118 104.047 155.911 109.089 149.59 109.216C149.506 109.218 149.422 109.219 149.337 109.219Z" fill="#1D5561"/>
</g>
<defs>
<clipPath id="clip0">
<rect width="182" height="182" fill="white" transform="translate(0 0.400024)"/>
</clipPath>
</defs>
</svg>
